Coordinates
version=1
nRows=10
nColumns=23
inDegrees=yes

Units are S.I. units (second, meters, Newtons, ...)
If the header above contains a line with 'inDegrees', this indicates whether rotational values are in degrees (yes) or radians (no).

endheader
time	pelvis_tilt	pelvis_list	pelvis_rotation	pelvis_tx	pelvis_ty	pelvis_tz	hip_flexion_r	hip_adduction_r	hip_rotation_r	knee_angle_r	knee_angle_r_beta	ankle_angle_r	subtalar_angle_r	mtp_angle_r	hip_flexion_l	hip_adduction_l	hip_rotation_l	knee_angle_l	knee_angle_l_beta	ankle_angle_l	subtalar_angle_l	mtp_angle_l
      0.00000000	     -6.51736140	      0.98628105	      0.17817948	      2.19397821	      1.02816050	      1.03439779	     32.63735056	      3.05623764	      2.26939294	     26.83111493	      0.46829130	     20.63065667	      5.55145672	      0.00000000	     -4.86265243	      1.85277500	     -1.61767307	     44.68544274	      0.77990810	    -17.45133362	    -10.30798788	      0.00000000
      0.00666667	     -5.90127520	      0.48341791	     -0.26921249	      2.19383841	      1.02472752	      1.03446271	     31.85793409	      3.68532975	      1.92964582	     27.27924811	      0.47611270	     17.84331987	      4.41113143	      0.00000000	     -4.22840881	      1.45576474	     -1.65416407	     48.02891938	      0.83826278	    -16.94780450	    -12.10008155	      0.00000000
      0.01333333	     -5.43877379	     -0.05058715	     -0.67604004	      2.19376065	      1.02086805	      1.03447965	     31.32255402	      4.26024760	      1.33172142	     27.97918605	      0.48832892	     15.42497867	      3.84226041	      0.00000000	     -3.46673626	      0.99830330	     -1.71732955	     51.33081030	      0.89589165	    -16.28623612	    -13.56893164	      0.00000000
      0.02000000	     -5.02610504	     -0.59397417	     -1.05841845	      2.19352272	      1.01673397	      1.03445998	     30.88840995	      4.86466435	      0.89801280	     28.89065318	      0.50423702	     13.15642321	      2.77683438	      0.00000000	     -2.65856873	      0.52506733	     -1.77722567	     54.57387329	      0.95249377	    -15.72359297	    -14.88256236	      0.00000000
      0.02666667	     -5.08424797	     -0.94561701	     -1.68185081	      2.19266411	      1.01172658	      1.03502311	     31.00237330	      5.70150306	      1.74220031	     29.97952418	      0.52324141	     10.89184099	     -0.03252347	      0.00000000	     -1.24903482	      0.17048850	     -2.16644594	     57.91369707	      1.01078470	    -15.18084422	    -15.98012421	      0.00000000
      0.03333333	     -4.57539833	     -1.58902871	     -2.14370382	      2.19227435	      1.00741850	      1.03524457	     30.53431134	      6.45380011	      1.41783693	     31.39194366	      0.54789278	      9.73494628	     -0.71977124	      0.00000000	     -0.53605348	     -0.51884889	     -2.45014417	     61.05301864	      1.06557619	    -14.78318290	    -17.21456362	      0.00000000
      0.04000000	     -4.73914134	     -1.90244090	     -2.88622393	      2.19100610	      1.00187583	      1.03611225	     30.94522820	      7.31805584	      2.28603120	     33.20294712	      0.57950075	      8.84901064	     -2.79559196	      0.00000000	      1.06146858	     -0.93771730	     -2.98953036	     64.34851281	      1.12309342	    -14.36997763	    -18.13445500	      0.00000000
      0.04666667	     -4.62530088	     -2.38342639	     -3.54953288	      2.18980515	      0.99674638	      1.03687715	     31.01991680	      8.23494719	      2.79052495	     35.13974684	      0.61330428	      8.83448171	     -3.98008886	      0.00000000	      2.36322383	     -1.59783119	     -3.48973093	     67.54841495	      1.17894225	    -14.00846208	    -19.07400192	      0.00000000
      0.05333333	     -4.29698695	     -3.05826982	     -4.14001035	      2.18861112	      0.99208804	      1.03758115	     30.75556187	      9.28084318	      3.12549481	     37.02453817	      0.64620010	      9.40237982	     -4.68131049	      0.00000000	      3.44800881	     -2.54504600	     -3.96196573	     70.66682751	      1.23336881	    -13.69110754	    -19.93137411	      0.00000000
      0.06000000	     -4.46547529	     -3.38174850	     -4.94896451	      2.18668978	      0.98664716	      1.03869331	     31.13020602	     10.26842905	      4.09793245	     39.17783263	      0.68378217	     10.33055947	     -5.83775927	      0.00000000	      5.20294310	     -3.13933674	     -4.48266265	     73.81808096	      1.28836856	    -13.26121343	    -20.64676653	      0.00000000
